<svg xmlns="http://www.w3.org/2000/svg" xmlns:xlink="http://www.w3.org/1999/xlink" width="1168" height="600" viewBox="0 0 1168 600">
    <defs>
        <path id="a" d="M0 0h1168v600H0z"/>
    </defs>
    <g fill="none" fill-rule="evenodd">
        <mask id="b" fill="#fff">
            <use xlink:href="#a"/>
        </mask>
        <use fill="#D9E1E0" fill-rule="nonzero" xlink:href="#a"/>
        <g mask="url(#b)" opacity=".5">
            <path fill="#EDF0EE" d="M71.363 52.026L43.46 44.597l17.133-4.561.273-.036h.933l.273.036 35.385 9.42.578.384 2.354 3.049.224.653v30.231l-.163.564-2.04 3.25 1.9 1.978.303.749v32.248l-.224.653-1.895 2.454-.577.384-27.365 7.285v3.028l-.869 1.126L60.262 140h-.554l-34.839-9.275-.869-1.126V47.076l2.104.56 33.674 8.965v81.254l.207.055 8.465-2.253v-3.923l28.588-7.61 1.472-1.907v-31.5l-2.748-2.86 2.748-4.377V53.887l-1.931-2.501-.365-.097-24.151 6.43v-5.081l-.7-.612zm-1.587 60.735l21.614 5.755-.07.089-20.79 5.535-.754-.575V112.76zm0-2.344V99.018l.398-.516 20.791-5.535.754.575v22.717l-21.943-5.842zm0-29.67l21.307 5.673-20.552 5.472-.755-.575v-10.57zm0-2.343V66.77l.398-.516 20.791-5.535.754.575v22.952l-21.943-5.842zM31.499 43.29l36.38 9.685-7.136 1.9-36.046-9.597.172-.223 6.63-1.765zM71.363 192.026l-27.902-7.429 17.133-4.561.273-.036h.933l.273.036 35.385 9.42.578.384 2.354 3.049.224.653v30.231l-.163.564-2.04 3.25 1.9 1.978.303.749v32.248l-.224.653-1.895 2.454-.577.384-27.365 7.285v3.028l-.869 1.126L60.262 280h-.554l-34.839-9.275-.869-1.126v-82.523l2.104.56 33.674 8.965v81.254l.207.055 8.465-2.253v-3.923l28.588-7.61 1.472-1.907v-31.5l-2.748-2.86 2.748-4.377v-29.593l-1.931-2.501-.365-.097-24.151 6.43v-5.081l-.7-.612zm-1.587 60.735l21.614 5.755-.07.089-20.79 5.535-.754-.575V252.76zm0-2.344v-11.399l.398-.516 20.791-5.535.754.575v22.717l-21.943-5.842zm0-29.67l21.307 5.673-20.552 5.472-.755-.575v-10.57zm0-2.343V206.77l.398-.516 20.791-5.535.754.575v22.952l-21.943-5.842zM31.499 183.29l36.38 9.685-7.136 1.9-36.046-9.597.172-.223 6.63-1.765zM71.363 332.026l-27.902-7.429 17.133-4.561.273-.036h.933l.273.036 35.385 9.42.578.384 2.354 3.049.224.653v30.231l-.163.564-2.04 3.25 1.9 1.978.303.749v32.248l-.224.653-1.895 2.454-.577.384-27.365 7.285v3.028l-.869 1.126L60.262 420h-.554l-34.839-9.275-.869-1.126v-82.523l2.104.56 33.674 8.965v81.254l.207.055 8.465-2.253v-3.923l28.588-7.61 1.472-1.907v-31.5l-2.748-2.86 2.748-4.377v-29.593l-1.931-2.501-.365-.097-24.151 6.43v-5.081l-.7-.612zm-1.587 60.735l21.614 5.755-.07.089-20.79 5.535-.754-.575V392.76zm0-2.344v-11.399l.398-.516 20.791-5.535.754.575v22.717l-21.943-5.842zm0-29.67l21.307 5.673-20.552 5.472-.755-.575v-10.57zm0-2.343V346.77l.398-.516 20.791-5.535.754.575v22.952l-21.943-5.842zM31.499 323.29l36.38 9.685-7.136 1.9-36.046-9.597.172-.223 6.63-1.765zM71.363 472.026l-27.902-7.429 17.133-4.561.273-.036h.933l.273.036 35.385 9.42.578.384 2.354 3.049.224.653v30.231l-.163.564-2.04 3.25 1.9 1.978.303.749v32.248l-.224.653-1.895 2.454-.577.384-27.365 7.285v3.028l-.869 1.126L60.262 560h-.554l-34.839-9.275-.869-1.126v-82.523l2.104.56 33.674 8.965v81.254l.207.055 8.465-2.253v-3.923l28.588-7.61 1.472-1.907v-31.5l-2.748-2.86 2.748-4.377v-29.593l-1.931-2.501-.365-.097-24.151 6.43v-5.081l-.7-.612zm-1.587 60.735l21.614 5.755-.07.089-20.79 5.535-.754-.575V532.76zm0-2.344v-11.399l.398-.516 20.791-5.535.754.575v22.717l-21.943-5.842zm0-29.67l21.307 5.673-20.552 5.472-.755-.575v-10.57zm0-2.343V486.77l.398-.516 20.791-5.535.754.575v22.952l-21.943-5.842zM31.499 463.29l36.38 9.685-7.136 1.9-36.046-9.597.172-.223 6.63-1.765zM479.363 52.026l-27.902-7.429 17.133-4.561.273-.036h.933l.273.036 35.385 9.42.578.384 2.354 3.049.224.653v30.231l-.163.564-2.04 3.25 1.9 1.978.303.749v32.248l-.224.653-1.895 2.454-.577.384-27.365 7.285v3.028l-.869 1.126-9.422 2.508h-.554l-34.839-9.275-.869-1.126V47.076l2.104.56 33.674 8.965v81.254l.207.055 8.465-2.253v-3.923l28.588-7.61 1.472-1.907v-31.5l-2.748-2.86 2.748-4.377V53.887l-1.931-2.501-.365-.097-24.151 6.43v-5.081l-.7-.612zm-1.587 60.735l21.614 5.755-.07.089-20.79 5.535-.754-.575V112.76zm0-2.344V99.018l.398-.516 20.791-5.535.754.575v22.717l-21.943-5.842zm0-29.67l21.307 5.673-20.552 5.472-.755-.575v-10.57zm0-2.343V66.77l.398-.516 20.791-5.535.754.575v22.952l-21.943-5.842zM439.499 43.29l36.38 9.685-7.136 1.9-36.046-9.597.172-.223 6.63-1.765zM479.363 192.026l-27.902-7.429 17.133-4.561.273-.036h.933l.273.036 35.385 9.42.578.384 2.354 3.049.224.653v30.231l-.163.564-2.04 3.25 1.9 1.978.303.749v32.248l-.224.653-1.895 2.454-.577.384-27.365 7.285v3.028l-.869 1.126-9.422 2.508h-.554l-34.839-9.275-.869-1.126v-82.523l2.104.56 33.674 8.965v81.254l.207.055 8.465-2.253v-3.923l28.588-7.61 1.472-1.907v-31.5l-2.748-2.86 2.748-4.377v-29.593l-1.931-2.501-.365-.097-24.151 6.43v-5.081l-.7-.612zm-1.587 60.735l21.614 5.755-.07.089-20.79 5.535-.754-.575V252.76zm0-2.344v-11.399l.398-.516 20.791-5.535.754.575v22.717l-21.943-5.842zm0-29.67l21.307 5.673-20.552 5.472-.755-.575v-10.57zm0-2.343V206.77l.398-.516 20.791-5.535.754.575v22.952l-21.943-5.842zm-38.277-35.114l36.38 9.685-7.136 1.9-36.046-9.597.172-.223 6.63-1.765zM479.363 332.026l-27.902-7.429 17.133-4.561.273-.036h.933l.273.036 35.385 9.42.578.384 2.354 3.049.224.653v30.231l-.163.564-2.04 3.25 1.9 1.978.303.749v32.248l-.224.653-1.895 2.454-.577.384-27.365 7.285v3.028l-.869 1.126-9.422 2.508h-.554l-34.839-9.275-.869-1.126v-82.523l2.104.56 33.674 8.965v81.254l.207.055 8.465-2.253v-3.923l28.588-7.61 1.472-1.907v-31.5l-2.748-2.86 2.748-4.377v-29.593l-1.931-2.501-.365-.097-24.151 6.43v-5.081l-.7-.612zm-1.587 60.735l21.614 5.755-.07.089-20.79 5.535-.754-.575V392.76zm0-2.344v-11.399l.398-.516 20.791-5.535.754.575v22.717l-21.943-5.842zm0-29.67l21.307 5.673-20.552 5.472-.755-.575v-10.57zm0-2.343V346.77l.398-.516 20.791-5.535.754.575v22.952l-21.943-5.842zm-38.277-35.114l36.38 9.685-7.136 1.9-36.046-9.597.172-.223 6.63-1.765zM479.363 472.026l-27.902-7.429 17.133-4.561.273-.036h.933l.273.036 35.385 9.42.578.384 2.354 3.049.224.653v30.231l-.163.564-2.04 3.25 1.9 1.978.303.749v32.248l-.224.653-1.895 2.454-.577.384-27.365 7.285v3.028l-.869 1.126-9.422 2.508h-.554l-34.839-9.275-.869-1.126v-82.523l2.104.56 33.674 8.965v81.254l.207.055 8.465-2.253v-3.923l28.588-7.61 1.472-1.907v-31.5l-2.748-2.86 2.748-4.377v-29.593l-1.931-2.501-.365-.097-24.151 6.43v-5.081l-.7-.612zm-1.587 60.735l21.614 5.755-.07.089-20.79 5.535-.754-.575V532.76zm0-2.344v-11.399l.398-.516 20.791-5.535.754.575v22.717l-21.943-5.842zm0-29.67l21.307 5.673-20.552 5.472-.755-.575v-10.57zm0-2.343V486.77l.398-.516 20.791-5.535.754.575v22.952l-21.943-5.842zm-38.277-35.114l36.38 9.685-7.136 1.9-36.046-9.597.172-.223 6.63-1.765zM1091.363 52.026l-27.902-7.429 17.133-4.561.273-.036h.933l.273.036 35.385 9.42.578.384 2.354 3.049.224.653v30.231l-.163.564-2.04 3.25 1.9 1.978.303.749v32.248l-.224.653-1.895 2.454-.577.384-27.365 7.285v3.028l-.869 1.126-9.422 2.508h-.554l-34.839-9.275-.869-1.126V47.076l2.104.56 33.674 8.965v81.254l.207.055 8.465-2.253v-3.923l28.588-7.61 1.472-1.907v-31.5l-2.748-2.86 2.748-4.377V53.887l-1.931-2.501-.365-.097-24.151 6.43v-5.081l-.7-.612zm-1.587 60.735l21.614 5.755-.07.089-20.79 5.535-.754-.575V112.76zm0-2.344V99.018l.398-.516 20.791-5.535.754.575v22.717l-21.943-5.842zm0-29.67l21.307 5.673-20.552 5.472-.755-.575v-10.57zm0-2.343V66.77l.398-.516 20.791-5.535.754.575v22.952l-21.943-5.842zm-38.277-35.114l36.38 9.685-7.136 1.9-36.046-9.597.172-.223 6.63-1.765zM1091.363 192.026l-27.902-7.429 17.133-4.561.273-.036h.933l.273.036 35.385 9.42.578.384 2.354 3.049.224.653v30.231l-.163.564-2.04 3.25 1.9 1.978.303.749v32.248l-.224.653-1.895 2.454-.577.384-27.365 7.285v3.028l-.869 1.126-9.422 2.508h-.554l-34.839-9.275-.869-1.126v-82.523l2.104.56 33.674 8.965v81.254l.207.055 8.465-2.253v-3.923l28.588-7.61 1.472-1.907v-31.5l-2.748-2.86 2.748-4.377v-29.593l-1.931-2.501-.365-.097-24.151 6.43v-5.081l-.7-.612zm-1.587 60.735l21.614 5.755-.07.089-20.79 5.535-.754-.575V252.76zm0-2.344v-11.399l.398-.516 20.791-5.535.754.575v22.717l-21.943-5.842zm0-29.67l21.307 5.673-20.552 5.472-.755-.575v-10.57zm0-2.343V206.77l.398-.516 20.791-5.535.754.575v22.952l-21.943-5.842zm-38.277-35.114l36.38 9.685-7.136 1.9-36.046-9.597.172-.223 6.63-1.765zM1091.363 332.026l-27.902-7.429 17.133-4.561.273-.036h.933l.273.036 35.385 9.42.578.384 2.354 3.049.224.653v30.231l-.163.564-2.04 3.25 1.9 1.978.303.749v32.248l-.224.653-1.895 2.454-.577.384-27.365 7.285v3.028l-.869 1.126-9.422 2.508h-.554l-34.839-9.275-.869-1.126v-82.523l2.104.56 33.674 8.965v81.254l.207.055 8.465-2.253v-3.923l28.588-7.61 1.472-1.907v-31.5l-2.748-2.86 2.748-4.377v-29.593l-1.931-2.501-.365-.097-24.151 6.43v-5.081l-.7-.612zm-1.587 60.735l21.614 5.755-.07.089-20.79 5.535-.754-.575V392.76zm0-2.344v-11.399l.398-.516 20.791-5.535.754.575v22.717l-21.943-5.842zm0-29.67l21.307 5.673-20.552 5.472-.755-.575v-10.57zm0-2.343V346.77l.398-.516 20.791-5.535.754.575v22.952l-21.943-5.842zm-38.277-35.114l36.38 9.685-7.136 1.9-36.046-9.597.172-.223 6.63-1.765zM1091.363 472.026l-27.902-7.429 17.133-4.561.273-.036h.933l.273.036 35.385 9.42.578.384 2.354 3.049.224.653v30.231l-.163.564-2.04 3.25 1.9 1.978.303.749v32.248l-.224.653-1.895 2.454-.577.384-27.365 7.285v3.028l-.869 1.126-9.422 2.508h-.554l-34.839-9.275-.869-1.126v-82.523l2.104.56 33.674 8.965v81.254l.207.055 8.465-2.253v-3.923l28.588-7.61 1.472-1.907v-31.5l-2.748-2.86 2.748-4.377v-29.593l-1.931-2.501-.365-.097-24.151 6.43v-5.081l-.7-.612zm-1.587 60.735l21.614 5.755-.07.089-20.79 5.535-.754-.575V532.76zm0-2.344v-11.399l.398-.516 20.791-5.535.754.575v22.717l-21.943-5.842zm0-29.67l21.307 5.673-20.552 5.472-.755-.575v-10.57zm0-2.343V486.77l.398-.516 20.791-5.535.754.575v22.952l-21.943-5.842zm-38.277-35.114l36.38 9.685-7.136 1.9-36.046-9.597.172-.223 6.63-1.765zM275.363 52.026l-27.902-7.429 17.133-4.561.273-.036h.933l.273.036 35.385 9.42.578.384 2.354 3.049.224.653v30.231l-.163.564-2.04 3.25 1.9 1.978.303.749v32.248l-.224.653-1.895 2.454-.577.384-27.365 7.285v3.028l-.869 1.126-9.422 2.508h-.554l-34.839-9.275-.869-1.126V47.076l2.104.56 33.674 8.965v81.254l.207.055 8.465-2.253v-3.923l28.588-7.61 1.472-1.907v-31.5l-2.748-2.86 2.748-4.377V53.887l-1.931-2.501-.365-.097-24.151 6.43v-5.081l-.7-.612zm-1.587 60.735l21.614 5.755-.07.089-20.79 5.535-.754-.575V112.76zm0-2.344V99.018l.398-.516 20.791-5.535.754.575v22.717l-21.943-5.842zm0-29.67l21.307 5.673-20.552 5.472-.755-.575v-10.57zm0-2.343V66.77l.398-.516 20.791-5.535.754.575v22.952l-21.943-5.842zM235.499 43.29l36.38 9.685-7.136 1.9-36.046-9.597.172-.223 6.63-1.765zM275.363 192.026l-27.902-7.429 17.133-4.561.273-.036h.933l.273.036 35.385 9.42.578.384 2.354 3.049.224.653v30.231l-.163.564-2.04 3.25 1.9 1.978.303.749v32.248l-.224.653-1.895 2.454-.577.384-27.365 7.285v3.028l-.869 1.126-9.422 2.508h-.554l-34.839-9.275-.869-1.126v-82.523l2.104.56 33.674 8.965v81.254l.207.055 8.465-2.253v-3.923l28.588-7.61 1.472-1.907v-31.5l-2.748-2.86 2.748-4.377v-29.593l-1.931-2.501-.365-.097-24.151 6.43v-5.081l-.7-.612zm-1.587 60.735l21.614 5.755-.07.089-20.79 5.535-.754-.575V252.76zm0-2.344v-11.399l.398-.516 20.791-5.535.754.575v22.717l-21.943-5.842zm0-29.67l21.307 5.673-20.552 5.472-.755-.575v-10.57zm0-2.343V206.77l.398-.516 20.791-5.535.754.575v22.952l-21.943-5.842zm-38.277-35.114l36.38 9.685-7.136 1.9-36.046-9.597.172-.223 6.63-1.765zM275.363 332.026l-27.902-7.429 17.133-4.561.273-.036h.933l.273.036 35.385 9.42.578.384 2.354 3.049.224.653v30.231l-.163.564-2.04 3.25 1.9 1.978.303.749v32.248l-.224.653-1.895 2.454-.577.384-27.365 7.285v3.028l-.869 1.126-9.422 2.508h-.554l-34.839-9.275-.869-1.126v-82.523l2.104.56 33.674 8.965v81.254l.207.055 8.465-2.253v-3.923l28.588-7.61 1.472-1.907v-31.5l-2.748-2.86 2.748-4.377v-29.593l-1.931-2.501-.365-.097-24.151 6.43v-5.081l-.7-.612zm-1.587 60.735l21.614 5.755-.07.089-20.79 5.535-.754-.575V392.76zm0-2.344v-11.399l.398-.516 20.791-5.535.754.575v22.717l-21.943-5.842zm0-29.67l21.307 5.673-20.552 5.472-.755-.575v-10.57zm0-2.343V346.77l.398-.516 20.791-5.535.754.575v22.952l-21.943-5.842zm-38.277-35.114l36.38 9.685-7.136 1.9-36.046-9.597.172-.223 6.63-1.765zM275.363 472.026l-27.902-7.429 17.133-4.561.273-.036h.933l.273.036 35.385 9.42.578.384 2.354 3.049.224.653v30.231l-.163.564-2.04 3.25 1.9 1.978.303.749v32.248l-.224.653-1.895 2.454-.577.384-27.365 7.285v3.028l-.869 1.126-9.422 2.508h-.554l-34.839-9.275-.869-1.126v-82.523l2.104.56 33.674 8.965v81.254l.207.055 8.465-2.253v-3.923l28.588-7.61 1.472-1.907v-31.5l-2.748-2.86 2.748-4.377v-29.593l-1.931-2.501-.365-.097-24.151 6.43v-5.081l-.7-.612zm-1.587 60.735l21.614 5.755-.07.089-20.79 5.535-.754-.575V532.76zm0-2.344v-11.399l.398-.516 20.791-5.535.754.575v22.717l-21.943-5.842zm0-29.67l21.307 5.673-20.552 5.472-.755-.575v-10.57zm0-2.343V486.77l.398-.516 20.791-5.535.754.575v22.952l-21.943-5.842zm-38.277-35.114l36.38 9.685-7.136 1.9-36.046-9.597.172-.223 6.63-1.765zM887.363 52.026l-27.902-7.429 17.133-4.561.273-.036h.933l.273.036 35.385 9.42.578.384 2.354 3.049.224.653v30.231l-.163.564-2.04 3.25 1.9 1.978.303.749v32.248l-.224.653-1.895 2.454-.577.384-27.365 7.285v3.028l-.869 1.126-9.422 2.508h-.554l-34.839-9.275-.869-1.126V47.076l2.104.56 33.674 8.965v81.254l.207.055 8.465-2.253v-3.923l28.588-7.61 1.472-1.907v-31.5l-2.748-2.86 2.748-4.377V53.887l-1.931-2.501-.365-.097-24.151 6.43v-5.081l-.7-.612zm-1.587 60.735l21.614 5.755-.07.089-20.79 5.535-.754-.575V112.76zm0-2.344V99.018l.398-.516 20.791-5.535.754.575v22.717l-21.943-5.842zm0-29.67l21.307 5.673-20.552 5.472-.755-.575v-10.57zm0-2.343V66.77l.398-.516 20.791-5.535.754.575v22.952l-21.943-5.842zM847.499 43.29l36.38 9.685-7.136 1.9-36.046-9.597.172-.223 6.63-1.765zM887.363 192.026l-27.902-7.429 17.133-4.561.273-.036h.933l.273.036 35.385 9.42.578.384 2.354 3.049.224.653v30.231l-.163.564-2.04 3.25 1.9 1.978.303.749v32.248l-.224.653-1.895 2.454-.577.384-27.365 7.285v3.028l-.869 1.126-9.422 2.508h-.554l-34.839-9.275-.869-1.126v-82.523l2.104.56 33.674 8.965v81.254l.207.055 8.465-2.253v-3.923l28.588-7.61 1.472-1.907v-31.5l-2.748-2.86 2.748-4.377v-29.593l-1.931-2.501-.365-.097-24.151 6.43v-5.081l-.7-.612zm-1.587 60.735l21.614 5.755-.07.089-20.79 5.535-.754-.575V252.76zm0-2.344v-11.399l.398-.516 20.791-5.535.754.575v22.717l-21.943-5.842zm0-29.67l21.307 5.673-20.552 5.472-.755-.575v-10.57zm0-2.343V206.77l.398-.516 20.791-5.535.754.575v22.952l-21.943-5.842zm-38.277-35.114l36.38 9.685-7.136 1.9-36.046-9.597.172-.223 6.63-1.765zM887.363 332.026l-27.902-7.429 17.133-4.561.273-.036h.933l.273.036 35.385 9.42.578.384 2.354 3.049.224.653v30.231l-.163.564-2.04 3.25 1.9 1.978.303.749v32.248l-.224.653-1.895 2.454-.577.384-27.365 7.285v3.028l-.869 1.126-9.422 2.508h-.554l-34.839-9.275-.869-1.126v-82.523l2.104.56 33.674 8.965v81.254l.207.055 8.465-2.253v-3.923l28.588-7.61 1.472-1.907v-31.5l-2.748-2.86 2.748-4.377v-29.593l-1.931-2.501-.365-.097-24.151 6.43v-5.081l-.7-.612zm-1.587 60.735l21.614 5.755-.07.089-20.79 5.535-.754-.575V392.76zm0-2.344v-11.399l.398-.516 20.791-5.535.754.575v22.717l-21.943-5.842zm0-29.67l21.307 5.673-20.552 5.472-.755-.575v-10.57zm0-2.343V346.77l.398-.516 20.791-5.535.754.575v22.952l-21.943-5.842zm-38.277-35.114l36.38 9.685-7.136 1.9-36.046-9.597.172-.223 6.63-1.765zM887.363 472.026l-27.902-7.429 17.133-4.561.273-.036h.933l.273.036 35.385 9.42.578.384 2.354 3.049.224.653v30.231l-.163.564-2.04 3.25 1.9 1.978.303.749v32.248l-.224.653-1.895 2.454-.577.384-27.365 7.285v3.028l-.869 1.126-9.422 2.508h-.554l-34.839-9.275-.869-1.126v-82.523l2.104.56 33.674 8.965v81.254l.207.055 8.465-2.253v-3.923l28.588-7.61 1.472-1.907v-31.5l-2.748-2.86 2.748-4.377v-29.593l-1.931-2.501-.365-.097-24.151 6.43v-5.081l-.7-.612zm-1.587 60.735l21.614 5.755-.07.089-20.79 5.535-.754-.575V532.76zm0-2.344v-11.399l.398-.516 20.791-5.535.754.575v22.717l-21.943-5.842zm0-29.67l21.307 5.673-20.552 5.472-.755-.575v-10.57zm0-2.343V486.77l.398-.516 20.791-5.535.754.575v22.952l-21.943-5.842zm-38.277-35.114l36.38 9.685-7.136 1.9-36.046-9.597.172-.223 6.63-1.765zM683.363 52.026l-27.902-7.429 17.133-4.561.273-.036h.933l.273.036 35.385 9.42.578.384 2.354 3.049.224.653v30.231l-.163.564-2.04 3.25 1.9 1.978.303.749v32.248l-.224.653-1.895 2.454-.577.384-27.365 7.285v3.028l-.869 1.126-9.422 2.508h-.554l-34.839-9.275-.869-1.126V47.076l2.104.56 33.674 8.965v81.254l.207.055 8.465-2.253v-3.923l28.588-7.61 1.472-1.907v-31.5l-2.748-2.86 2.748-4.377V53.887l-1.931-2.501-.365-.097-24.151 6.43v-5.081l-.7-.612zm-1.587 60.735l21.614 5.755-.07.089-20.79 5.535-.754-.575V112.76zm0-2.344V99.018l.398-.516 20.791-5.535.754.575v22.717l-21.943-5.842zm0-29.67l21.307 5.673-20.552 5.472-.755-.575v-10.57zm0-2.343V66.77l.398-.516 20.791-5.535.754.575v22.952l-21.943-5.842zM643.499 43.29l36.38 9.685-7.136 1.9-36.046-9.597.172-.223 6.63-1.765zM683.363 192.026l-27.902-7.429 17.133-4.561.273-.036h.933l.273.036 35.385 9.42.578.384 2.354 3.049.224.653v30.231l-.163.564-2.04 3.25 1.9 1.978.303.749v32.248l-.224.653-1.895 2.454-.577.384-27.365 7.285v3.028l-.869 1.126-9.422 2.508h-.554l-34.839-9.275-.869-1.126v-82.523l2.104.56 33.674 8.965v81.254l.207.055 8.465-2.253v-3.923l28.588-7.61 1.472-1.907v-31.5l-2.748-2.86 2.748-4.377v-29.593l-1.931-2.501-.365-.097-24.151 6.43v-5.081l-.7-.612zm-1.587 60.735l21.614 5.755-.07.089-20.79 5.535-.754-.575V252.76zm0-2.344v-11.399l.398-.516 20.791-5.535.754.575v22.717l-21.943-5.842zm0-29.67l21.307 5.673-20.552 5.472-.755-.575v-10.57zm0-2.343V206.77l.398-.516 20.791-5.535.754.575v22.952l-21.943-5.842zm-38.277-35.114l36.38 9.685-7.136 1.9-36.046-9.597.172-.223 6.63-1.765zM683.363 332.026l-27.902-7.429 17.133-4.561.273-.036h.933l.273.036 35.385 9.42.578.384 2.354 3.049.224.653v30.231l-.163.564-2.04 3.25 1.9 1.978.303.749v32.248l-.224.653-1.895 2.454-.577.384-27.365 7.285v3.028l-.869 1.126-9.422 2.508h-.554l-34.839-9.275-.869-1.126v-82.523l2.104.56 33.674 8.965v81.254l.207.055 8.465-2.253v-3.923l28.588-7.61 1.472-1.907v-31.5l-2.748-2.86 2.748-4.377v-29.593l-1.931-2.501-.365-.097-24.151 6.43v-5.081l-.7-.612zm-1.587 60.735l21.614 5.755-.07.089-20.79 5.535-.754-.575V392.76zm0-2.344v-11.399l.398-.516 20.791-5.535.754.575v22.717l-21.943-5.842zm0-29.67l21.307 5.673-20.552 5.472-.755-.575v-10.57zm0-2.343V346.77l.398-.516 20.791-5.535.754.575v22.952l-21.943-5.842zm-38.277-35.114l36.38 9.685-7.136 1.9-36.046-9.597.172-.223 6.63-1.765zM683.363 472.026l-27.902-7.429 17.133-4.561.273-.036h.933l.273.036 35.385 9.42.578.384 2.354 3.049.224.653v30.231l-.163.564-2.04 3.25 1.9 1.978.303.749v32.248l-.224.653-1.895 2.454-.577.384-27.365 7.285v3.028l-.869 1.126-9.422 2.508h-.554l-34.839-9.275-.869-1.126v-82.523l2.104.56 33.674 8.965v81.254l.207.055 8.465-2.253v-3.923l28.588-7.61 1.472-1.907v-31.5l-2.748-2.86 2.748-4.377v-29.593l-1.931-2.501-.365-.097-24.151 6.43v-5.081l-.7-.612zm-1.587 60.735l21.614 5.755-.07.089-20.79 5.535-.754-.575V532.76zm0-2.344v-11.399l.398-.516 20.791-5.535.754.575v22.717l-21.943-5.842zm0-29.67l21.307 5.673-20.552 5.472-.755-.575v-10.57zm0-2.343V486.77l.398-.516 20.791-5.535.754.575v22.952l-21.943-5.842zm-38.277-35.114l36.38 9.685-7.136 1.9-36.046-9.597.172-.223 6.63-1.765zM173.363 114.026l-27.902-7.429 17.133-4.561.273-.036h.933l.273.036 35.385 9.42.578.384 2.354 3.049.224.653v30.231l-.163.564-2.04 3.25 1.9 1.978.303.749v32.248l-.224.653-1.895 2.454-.577.384-27.365 7.285v3.028l-.869 1.126-9.422 2.508h-.554l-34.839-9.275-.869-1.126v-82.523l2.104.56 33.674 8.965v81.254l.207.055 8.465-2.253v-3.923l28.588-7.61 1.472-1.907v-31.5l-2.748-2.86 2.748-4.377v-29.593l-1.931-2.501-.365-.097-24.151 6.43v-5.081l-.7-.612zm-1.587 60.735l21.614 5.755-.07.089-20.79 5.535-.754-.575V174.76zm0-2.344v-11.399l.398-.516 20.791-5.535.754.575v22.717l-21.943-5.842zm0-29.67l21.307 5.673-20.552 5.472-.755-.575v-10.57zm0-2.343V128.77l.398-.516 20.791-5.535.754.575v22.952l-21.943-5.842zm-38.277-35.114l36.38 9.685-7.136 1.9-36.046-9.597.172-.223 6.63-1.765zM173.363-25.974l-27.902-7.429 17.133-4.561.273-.036h.933l.273.036 35.385 9.42.578.384 2.354 3.049.224.653V5.773l-.163.564-2.04 3.25 1.9 1.978.303.749v32.248l-.224.653-1.895 2.454-.577.384-27.365 7.285v3.028l-.869 1.126L162.262 62h-.554l-34.839-9.275-.869-1.126v-82.523l2.104.56 33.674 8.965v81.254l.207.055 8.465-2.253v-3.923l28.588-7.61 1.472-1.907v-31.5l-2.748-2.86 2.748-4.377v-29.593l-1.931-2.501-.365-.097-24.151 6.43v-5.081l-.7-.612zm-1.587 60.735l21.614 5.755-.07.089-20.79 5.535-.754-.575V34.76zm0-2.344V21.018l.398-.516 20.791-5.535.754.575V38.26l-21.943-5.842zm0-29.67l21.307 5.673-20.552 5.472-.755-.575V2.747zm0-2.343V-11.23l.398-.516 20.791-5.535.754.575V6.246L171.776.404zM133.499-34.71l36.38 9.685-7.136 1.9-36.046-9.597.172-.223 6.63-1.765zM173.363 254.026l-27.902-7.429 17.133-4.561.273-.036h.933l.273.036 35.385 9.42.578.384 2.354 3.049.224.653v30.231l-.163.564-2.04 3.25 1.9 1.978.303.749v32.248l-.224.653-1.895 2.454-.577.384-27.365 7.285v3.028l-.869 1.126-9.422 2.508h-.554l-34.839-9.275-.869-1.126v-82.523l2.104.56 33.674 8.965v81.254l.207.055 8.465-2.253v-3.923l28.588-7.61 1.472-1.907v-31.5l-2.748-2.86 2.748-4.377v-29.593l-1.931-2.501-.365-.097-24.151 6.43v-5.081l-.7-.612zm-1.587 60.735l21.614 5.755-.07.089-20.79 5.535-.754-.575V314.76zm0-2.344v-11.399l.398-.516 20.791-5.535.754.575v22.717l-21.943-5.842zm0-29.67l21.307 5.673-20.552 5.472-.755-.575v-10.57zm0-2.343V268.77l.398-.516 20.791-5.535.754.575v22.952l-21.943-5.842zm-38.277-35.114l36.38 9.685-7.136 1.9-36.046-9.597.172-.223 6.63-1.765zM173.363 394.026l-27.902-7.429 17.133-4.561.273-.036h.933l.273.036 35.385 9.42.578.384 2.354 3.049.224.653v30.231l-.163.564-2.04 3.25 1.9 1.978.303.749v32.248l-.224.653-1.895 2.454-.577.384-27.365 7.285v3.028l-.869 1.126-9.422 2.508h-.554l-34.839-9.275-.869-1.126v-82.523l2.104.56 33.674 8.965v81.254l.207.055 8.465-2.253v-3.923l28.588-7.61 1.472-1.907v-31.5l-2.748-2.86 2.748-4.377v-29.593l-1.931-2.501-.365-.097-24.151 6.43v-5.081l-.7-.612zm-1.587 60.735l21.614 5.755-.07.089-20.79 5.535-.754-.575V454.76zm0-2.344v-11.399l.398-.516 20.791-5.535.754.575v22.717l-21.943-5.842zm0-29.67l21.307 5.673-20.552 5.472-.755-.575v-10.57zm0-2.343V408.77l.398-.516 20.791-5.535.754.575v22.952l-21.943-5.842zm-38.277-35.114l36.38 9.685-7.136 1.9-36.046-9.597.172-.223 6.63-1.765zM173.363 534.026l-27.902-7.429 17.133-4.561.273-.036h.933l.273.036 35.385 9.42.578.384 2.354 3.049.224.653v30.231l-.163.564-2.04 3.25 1.9 1.978.303.749v32.248l-.224.653-1.895 2.454-.577.384-27.365 7.285v3.028l-.869 1.126-9.422 2.508h-.554l-34.839-9.275-.869-1.126v-82.523l2.104.56 33.674 8.965v81.254l.207.055 8.465-2.253v-3.923l28.588-7.61 1.472-1.907v-31.5l-2.748-2.86 2.748-4.377v-29.593l-1.931-2.501-.365-.097-24.151 6.43v-5.081l-.7-.612zm-1.587 60.735l21.614 5.755-.07.089-20.79 5.535-.754-.575V594.76zm0-2.344v-11.399l.398-.516 20.791-5.535.754.575v22.717l-21.943-5.842zm0-29.67l21.307 5.673-20.552 5.472-.755-.575v-10.57zm0-2.343V548.77l.398-.516 20.791-5.535.754.575v22.952l-21.943-5.842zm-38.277-35.114l36.38 9.685-7.136 1.9-36.046-9.597.172-.223 6.63-1.765zM581.363 114.026l-27.902-7.429 17.133-4.561.273-.036h.933l.273.036 35.385 9.42.578.384 2.354 3.049.224.653v30.231l-.163.564-2.04 3.25 1.9 1.978.303.749v32.248l-.224.653-1.895 2.454-.577.384-27.365 7.285v3.028l-.869 1.126-9.422 2.508h-.554l-34.839-9.275-.869-1.126v-82.523l2.104.56 33.674 8.965v81.254l.207.055 8.465-2.253v-3.923l28.588-7.61 1.472-1.907v-31.5l-2.748-2.86 2.748-4.377v-29.593l-1.931-2.501-.365-.097-24.151 6.43v-5.081l-.7-.612zm-1.587 60.735l21.614 5.755-.07.089-20.79 5.535-.754-.575V174.76zm0-2.344v-11.399l.398-.516 20.791-5.535.754.575v22.717l-21.943-5.842zm0-29.67l21.307 5.673-20.552 5.472-.755-.575v-10.57zm0-2.343V128.77l.398-.516 20.791-5.535.754.575v22.952l-21.943-5.842zm-38.277-35.114l36.38 9.685-7.136 1.9-36.046-9.597.172-.223 6.63-1.765zM581.363-25.974l-27.902-7.429 17.133-4.561.273-.036h.933l.273.036 35.385 9.42.578.384 2.354 3.049.224.653V5.773l-.163.564-2.04 3.25 1.9 1.978.303.749v32.248l-.224.653-1.895 2.454-.577.384-27.365 7.285v3.028l-.869 1.126L570.262 62h-.554l-34.839-9.275-.869-1.126v-82.523l2.104.56 33.674 8.965v81.254l.207.055 8.465-2.253v-3.923l28.588-7.61 1.472-1.907v-31.5l-2.748-2.86 2.748-4.377v-29.593l-1.931-2.501-.365-.097-24.151 6.43v-5.081l-.7-.612zm-1.587 60.735l21.614 5.755-.07.089-20.79 5.535-.754-.575V34.76zm0-2.344V21.018l.398-.516 20.791-5.535.754.575V38.26l-21.943-5.842zm0-29.67l21.307 5.673-20.552 5.472-.755-.575V2.747zm0-2.343V-11.23l.398-.516 20.791-5.535.754.575V6.246L579.776.404zM541.499-34.71l36.38 9.685-7.136 1.9-36.046-9.597.172-.223 6.63-1.765zM581.363 254.026l-27.902-7.429 17.133-4.561.273-.036h.933l.273.036 35.385 9.42.578.384 2.354 3.049.224.653v30.231l-.163.564-2.04 3.25 1.9 1.978.303.749v32.248l-.224.653-1.895 2.454-.577.384-27.365 7.285v3.028l-.869 1.126-9.422 2.508h-.554l-34.839-9.275-.869-1.126v-82.523l2.104.56 33.674 8.965v81.254l.207.055 8.465-2.253v-3.923l28.588-7.61 1.472-1.907v-31.5l-2.748-2.86 2.748-4.377v-29.593l-1.931-2.501-.365-.097-24.151 6.43v-5.081l-.7-.612zm-1.587 60.735l21.614 5.755-.07.089-20.79 5.535-.754-.575V314.76zm0-2.344v-11.399l.398-.516 20.791-5.535.754.575v22.717l-21.943-5.842zm0-29.67l21.307 5.673-20.552 5.472-.755-.575v-10.57zm0-2.343V268.77l.398-.516 20.791-5.535.754.575v22.952l-21.943-5.842zm-38.277-35.114l36.38 9.685-7.136 1.9-36.046-9.597.172-.223 6.63-1.765zM581.363 394.026l-27.902-7.429 17.133-4.561.273-.036h.933l.273.036 35.385 9.42.578.384 2.354 3.049.224.653v30.231l-.163.564-2.04 3.25 1.9 1.978.303.749v32.248l-.224.653-1.895 2.454-.577.384-27.365 7.285v3.028l-.869 1.126-9.422 2.508h-.554l-34.839-9.275-.869-1.126v-82.523l2.104.56 33.674 8.965v81.254l.207.055 8.465-2.253v-3.923l28.588-7.61 1.472-1.907v-31.5l-2.748-2.86 2.748-4.377v-29.593l-1.931-2.501-.365-.097-24.151 6.43v-5.081l-.7-.612zm-1.587 60.735l21.614 5.755-.07.089-20.79 5.535-.754-.575V454.76zm0-2.344v-11.399l.398-.516 20.791-5.535.754.575v22.717l-21.943-5.842zm0-29.67l21.307 5.673-20.552 5.472-.755-.575v-10.57zm0-2.343V408.77l.398-.516 20.791-5.535.754.575v22.952l-21.943-5.842zm-38.277-35.114l36.38 9.685-7.136 1.9-36.046-9.597.172-.223 6.63-1.765zM581.363 534.026l-27.902-7.429 17.133-4.561.273-.036h.933l.273.036 35.385 9.42.578.384 2.354 3.049.224.653v30.231l-.163.564-2.04 3.25 1.9 1.978.303.749v32.248l-.224.653-1.895 2.454-.577.384-27.365 7.285v3.028l-.869 1.126-9.422 2.508h-.554l-34.839-9.275-.869-1.126v-82.523l2.104.56 33.674 8.965v81.254l.207.055 8.465-2.253v-3.923l28.588-7.61 1.472-1.907v-31.5l-2.748-2.86 2.748-4.377v-29.593l-1.931-2.501-.365-.097-24.151 6.43v-5.081l-.7-.612zm-1.587 60.735l21.614 5.755-.07.089-20.79 5.535-.754-.575V594.76zm0-2.344v-11.399l.398-.516 20.791-5.535.754.575v22.717l-21.943-5.842zm0-29.67l21.307 5.673-20.552 5.472-.755-.575v-10.57zm0-2.343V548.77l.398-.516 20.791-5.535.754.575v22.952l-21.943-5.842zm-38.277-35.114l36.38 9.685-7.136 1.9-36.046-9.597.172-.223 6.63-1.765zM377.363 114.026l-27.902-7.429 17.133-4.561.273-.036h.933l.273.036 35.385 9.42.578.384 2.354 3.049.224.653v30.231l-.163.564-2.04 3.25 1.9 1.978.303.749v32.248l-.224.653-1.895 2.454-.577.384-27.365 7.285v3.028l-.869 1.126-9.422 2.508h-.554l-34.839-9.275-.869-1.126v-82.523l2.104.56 33.674 8.965v81.254l.207.055 8.465-2.253v-3.923l28.588-7.61 1.472-1.907v-31.5l-2.748-2.86 2.748-4.377v-29.593l-1.931-2.501-.365-.097-24.151 6.43v-5.081l-.7-.612zm-1.587 60.735l21.614 5.755-.07.089-20.79 5.535-.754-.575V174.76zm0-2.344v-11.399l.398-.516 20.791-5.535.754.575v22.717l-21.943-5.842zm0-29.67l21.307 5.673-20.552 5.472-.755-.575v-10.57zm0-2.343V128.77l.398-.516 20.791-5.535.754.575v22.952l-21.943-5.842zm-38.277-35.114l36.38 9.685-7.136 1.9-36.046-9.597.172-.223 6.63-1.765zM377.363-25.974l-27.902-7.429 17.133-4.561.273-.036h.933l.273.036 35.385 9.42.578.384 2.354 3.049.224.653V5.773l-.163.564-2.04 3.25 1.9 1.978.303.749v32.248l-.224.653-1.895 2.454-.577.384-27.365 7.285v3.028l-.869 1.126L366.262 62h-.554l-34.839-9.275-.869-1.126v-82.523l2.104.56 33.674 8.965v81.254l.207.055 8.465-2.253v-3.923l28.588-7.61 1.472-1.907v-31.5l-2.748-2.86 2.748-4.377v-29.593l-1.931-2.501-.365-.097-24.151 6.43v-5.081l-.7-.612zm-1.587 60.735l21.614 5.755-.07.089-20.79 5.535-.754-.575V34.76zm0-2.344V21.018l.398-.516 20.791-5.535.754.575V38.26l-21.943-5.842zm0-29.67l21.307 5.673-20.552 5.472-.755-.575V2.747zm0-2.343V-11.23l.398-.516 20.791-5.535.754.575V6.246L375.776.404zM337.499-34.71l36.38 9.685-7.136 1.9-36.046-9.597.172-.223 6.63-1.765zM377.363 254.026l-27.902-7.429 17.133-4.561.273-.036h.933l.273.036 35.385 9.42.578.384 2.354 3.049.224.653v30.231l-.163.564-2.04 3.25 1.9 1.978.303.749v32.248l-.224.653-1.895 2.454-.577.384-27.365 7.285v3.028l-.869 1.126-9.422 2.508h-.554l-34.839-9.275-.869-1.126v-82.523l2.104.56 33.674 8.965v81.254l.207.055 8.465-2.253v-3.923l28.588-7.61 1.472-1.907v-31.5l-2.748-2.86 2.748-4.377v-29.593l-1.931-2.501-.365-.097-24.151 6.43v-5.081l-.7-.612zm-1.587 60.735l21.614 5.755-.07.089-20.79 5.535-.754-.575V314.76zm0-2.344v-11.399l.398-.516 20.791-5.535.754.575v22.717l-21.943-5.842zm0-29.67l21.307 5.673-20.552 5.472-.755-.575v-10.57zm0-2.343V268.77l.398-.516 20.791-5.535.754.575v22.952l-21.943-5.842zm-38.277-35.114l36.38 9.685-7.136 1.9-36.046-9.597.172-.223 6.63-1.765zM377.363 394.026l-27.902-7.429 17.133-4.561.273-.036h.933l.273.036 35.385 9.42.578.384 2.354 3.049.224.653v30.231l-.163.564-2.04 3.25 1.9 1.978.303.749v32.248l-.224.653-1.895 2.454-.577.384-27.365 7.285v3.028l-.869 1.126-9.422 2.508h-.554l-34.839-9.275-.869-1.126v-82.523l2.104.56 33.674 8.965v81.254l.207.055 8.465-2.253v-3.923l28.588-7.61 1.472-1.907v-31.5l-2.748-2.86 2.748-4.377v-29.593l-1.931-2.501-.365-.097-24.151 6.43v-5.081l-.7-.612zm-1.587 60.735l21.614 5.755-.07.089-20.79 5.535-.754-.575V454.76zm0-2.344v-11.399l.398-.516 20.791-5.535.754.575v22.717l-21.943-5.842zm0-29.67l21.307 5.673-20.552 5.472-.755-.575v-10.57zm0-2.343V408.77l.398-.516 20.791-5.535.754.575v22.952l-21.943-5.842zm-38.277-35.114l36.38 9.685-7.136 1.9-36.046-9.597.172-.223 6.63-1.765zM377.363 534.026l-27.902-7.429 17.133-4.561.273-.036h.933l.273.036 35.385 9.42.578.384 2.354 3.049.224.653v30.231l-.163.564-2.04 3.25 1.9 1.978.303.749v32.248l-.224.653-1.895 2.454-.577.384-27.365 7.285v3.028l-.869 1.126-9.422 2.508h-.554l-34.839-9.275-.869-1.126v-82.523l2.104.56 33.674 8.965v81.254l.207.055 8.465-2.253v-3.923l28.588-7.61 1.472-1.907v-31.5l-2.748-2.86 2.748-4.377v-29.593l-1.931-2.501-.365-.097-24.151 6.43v-5.081l-.7-.612zm-1.587 60.735l21.614 5.755-.07.089-20.79 5.535-.754-.575V594.76zm0-2.344v-11.399l.398-.516 20.791-5.535.754.575v22.717l-21.943-5.842zm0-29.67l21.307 5.673-20.552 5.472-.755-.575v-10.57zm0-2.343V548.77l.398-.516 20.791-5.535.754.575v22.952l-21.943-5.842zm-38.277-35.114l36.38 9.685-7.136 1.9-36.046-9.597.172-.223 6.63-1.765zM989.363 114.026l-27.902-7.429 17.133-4.561.273-.036h.933l.273.036 35.385 9.42.578.384 2.354 3.049.224.653v30.231l-.163.564-2.04 3.25 1.9 1.978.303.749v32.248l-.224.653-1.895 2.454-.577.384-27.365 7.285v3.028l-.869 1.126-9.422 2.508h-.554l-34.839-9.275-.869-1.126v-82.523l2.104.56 33.674 8.965v81.254l.207.055 8.465-2.253v-3.923l28.588-7.61 1.472-1.907v-31.5l-2.748-2.86 2.748-4.377v-29.593l-1.931-2.501-.365-.097-24.151 6.43v-5.081l-.7-.612zm-1.587 60.735l21.614 5.755-.07.089-20.79 5.535-.754-.575V174.76zm0-2.344v-11.399l.398-.516 20.791-5.535.754.575v22.717l-21.943-5.842zm0-29.67l21.307 5.673-20.552 5.472-.755-.575v-10.57zm0-2.343V128.77l.398-.516 20.791-5.535.754.575v22.952l-21.943-5.842zm-38.277-35.114l36.38 9.685-7.136 1.9-36.046-9.597.172-.223 6.63-1.765zM989.363-25.974l-27.902-7.429 17.133-4.561.273-.036h.933l.273.036 35.385 9.42.578.384 2.354 3.049.224.653V5.773l-.163.564-2.04 3.25 1.9 1.978.303.749v32.248l-.224.653-1.895 2.454-.577.384-27.365 7.285v3.028l-.869 1.126L978.262 62h-.554l-34.839-9.275-.869-1.126v-82.523l2.104.56 33.674 8.965v81.254l.207.055 8.465-2.253v-3.923l28.588-7.61 1.472-1.907v-31.5l-2.748-2.86 2.748-4.377v-29.593l-1.931-2.501-.365-.097-24.151 6.43v-5.081l-.7-.612zm-1.587 60.735l21.614 5.755-.07.089-20.79 5.535-.754-.575V34.76zm0-2.344V21.018l.398-.516 20.791-5.535.754.575V38.26l-21.943-5.842zm0-29.67l21.307 5.673-20.552 5.472-.755-.575V2.747zm0-2.343V-11.23l.398-.516 20.791-5.535.754.575V6.246L987.776.404zM949.499-34.71l36.38 9.685-7.136 1.9-36.046-9.597.172-.223 6.63-1.765zM989.363 254.026l-27.902-7.429 17.133-4.561.273-.036h.933l.273.036 35.385 9.42.578.384 2.354 3.049.224.653v30.231l-.163.564-2.04 3.25 1.9 1.978.303.749v32.248l-.224.653-1.895 2.454-.577.384-27.365 7.285v3.028l-.869 1.126-9.422 2.508h-.554l-34.839-9.275-.869-1.126v-82.523l2.104.56 33.674 8.965v81.254l.207.055 8.465-2.253v-3.923l28.588-7.61 1.472-1.907v-31.5l-2.748-2.86 2.748-4.377v-29.593l-1.931-2.501-.365-.097-24.151 6.43v-5.081l-.7-.612zm-1.587 60.735l21.614 5.755-.07.089-20.79 5.535-.754-.575V314.76zm0-2.344v-11.399l.398-.516 20.791-5.535.754.575v22.717l-21.943-5.842zm0-29.67l21.307 5.673-20.552 5.472-.755-.575v-10.57zm0-2.343V268.77l.398-.516 20.791-5.535.754.575v22.952l-21.943-5.842zm-38.277-35.114l36.38 9.685-7.136 1.9-36.046-9.597.172-.223 6.63-1.765zM989.363 394.026l-27.902-7.429 17.133-4.561.273-.036h.933l.273.036 35.385 9.42.578.384 2.354 3.049.224.653v30.231l-.163.564-2.04 3.25 1.9 1.978.303.749v32.248l-.224.653-1.895 2.454-.577.384-27.365 7.285v3.028l-.869 1.126-9.422 2.508h-.554l-34.839-9.275-.869-1.126v-82.523l2.104.56 33.674 8.965v81.254l.207.055 8.465-2.253v-3.923l28.588-7.61 1.472-1.907v-31.5l-2.748-2.86 2.748-4.377v-29.593l-1.931-2.501-.365-.097-24.151 6.43v-5.081l-.7-.612zm-1.587 60.735l21.614 5.755-.07.089-20.79 5.535-.754-.575V454.76zm0-2.344v-11.399l.398-.516 20.791-5.535.754.575v22.717l-21.943-5.842zm0-29.67l21.307 5.673-20.552 5.472-.755-.575v-10.57zm0-2.343V408.77l.398-.516 20.791-5.535.754.575v22.952l-21.943-5.842zm-38.277-35.114l36.38 9.685-7.136 1.9-36.046-9.597.172-.223 6.63-1.765zM989.363 534.026l-27.902-7.429 17.133-4.561.273-.036h.933l.273.036 35.385 9.42.578.384 2.354 3.049.224.653v30.231l-.163.564-2.04 3.25 1.9 1.978.303.749v32.248l-.224.653-1.895 2.454-.577.384-27.365 7.285v3.028l-.869 1.126-9.422 2.508h-.554l-34.839-9.275-.869-1.126v-82.523l2.104.56 33.674 8.965v81.254l.207.055 8.465-2.253v-3.923l28.588-7.61 1.472-1.907v-31.5l-2.748-2.86 2.748-4.377v-29.593l-1.931-2.501-.365-.097-24.151 6.43v-5.081l-.7-.612zm-1.587 60.735l21.614 5.755-.07.089-20.79 5.535-.754-.575V594.76zm0-2.344v-11.399l.398-.516 20.791-5.535.754.575v22.717l-21.943-5.842zm0-29.67l21.307 5.673-20.552 5.472-.755-.575v-10.57zm0-2.343V548.77l.398-.516 20.791-5.535.754.575v22.952l-21.943-5.842zm-38.277-35.114l36.38 9.685-7.136 1.9-36.046-9.597.172-.223 6.63-1.765zM1193.363 114.026l-27.902-7.429 17.133-4.561.273-.036h.933l.273.036 35.385 9.42.578.384 2.354 3.049.224.653v30.231l-.163.564-2.04 3.25 1.9 1.978.303.749v32.248l-.224.653-1.895 2.454-.577.384-27.365 7.285v3.028l-.869 1.126-9.422 2.508h-.554l-34.839-9.275-.869-1.126v-82.523l2.104.56 33.674 8.965v81.254l.207.055 8.465-2.253v-3.923l28.588-7.61 1.472-1.907v-31.5l-2.748-2.86 2.748-4.377v-29.593l-1.931-2.501-.365-.097-24.151 6.43v-5.081l-.7-.612zm-1.587 60.735l21.614 5.755-.07.089-20.79 5.535-.754-.575V174.76zm0-2.344v-11.399l.398-.516 20.791-5.535.754.575v22.717l-21.943-5.842zm0-29.67l21.307 5.673-20.552 5.472-.755-.575v-10.57zm0-2.343V128.77l.398-.516 20.791-5.535.754.575v22.952l-21.943-5.842zm-38.277-35.114l36.38 9.685-7.136 1.9-36.046-9.597.172-.223 6.63-1.765zM1193.363-25.974l-27.902-7.429 17.133-4.561.273-.036h.933l.273.036 35.385 9.42.578.384 2.354 3.049.224.653V5.773l-.163.564-2.04 3.25 1.9 1.978.303.749v32.248l-.224.653-1.895 2.454-.577.384-27.365 7.285v3.028l-.869 1.126-9.422 2.508h-.554l-34.839-9.275-.869-1.126v-82.523l2.104.56 33.674 8.965v81.254l.207.055 8.465-2.253v-3.923l28.588-7.61 1.472-1.907v-31.5l-2.748-2.86 2.748-4.377v-29.593l-1.931-2.501-.365-.097-24.151 6.43v-5.081l-.7-.612zm-1.587 60.735l21.614 5.755-.07.089-20.79 5.535-.754-.575V34.76zm0-2.344V21.018l.398-.516 20.791-5.535.754.575V38.26l-21.943-5.842zm0-29.67l21.307 5.673-20.552 5.472-.755-.575V2.747zm0-2.343V-11.23l.398-.516 20.791-5.535.754.575V6.246L1191.776.404zm-38.277-35.114l36.38 9.685-7.136 1.9-36.046-9.597.172-.223 6.63-1.765zM1193.363 254.026l-27.902-7.429 17.133-4.561.273-.036h.933l.273.036 35.385 9.42.578.384 2.354 3.049.224.653v30.231l-.163.564-2.04 3.25 1.9 1.978.303.749v32.248l-.224.653-1.895 2.454-.577.384-27.365 7.285v3.028l-.869 1.126-9.422 2.508h-.554l-34.839-9.275-.869-1.126v-82.523l2.104.56 33.674 8.965v81.254l.207.055 8.465-2.253v-3.923l28.588-7.61 1.472-1.907v-31.5l-2.748-2.86 2.748-4.377v-29.593l-1.931-2.501-.365-.097-24.151 6.43v-5.081l-.7-.612zm-1.587 60.735l21.614 5.755-.07.089-20.79 5.535-.754-.575V314.76zm0-2.344v-11.399l.398-.516 20.791-5.535.754.575v22.717l-21.943-5.842zm0-29.67l21.307 5.673-20.552 5.472-.755-.575v-10.57zm0-2.343V268.77l.398-.516 20.791-5.535.754.575v22.952l-21.943-5.842zm-38.277-35.114l36.38 9.685-7.136 1.9-36.046-9.597.172-.223 6.63-1.765zM1193.363 394.026l-27.902-7.429 17.133-4.561.273-.036h.933l.273.036 35.385 9.42.578.384 2.354 3.049.224.653v30.231l-.163.564-2.04 3.25 1.9 1.978.303.749v32.248l-.224.653-1.895 2.454-.577.384-27.365 7.285v3.028l-.869 1.126-9.422 2.508h-.554l-34.839-9.275-.869-1.126v-82.523l2.104.56 33.674 8.965v81.254l.207.055 8.465-2.253v-3.923l28.588-7.61 1.472-1.907v-31.5l-2.748-2.86 2.748-4.377v-29.593l-1.931-2.501-.365-.097-24.151 6.43v-5.081l-.7-.612zm-1.587 60.735l21.614 5.755-.07.089-20.79 5.535-.754-.575V454.76zm0-2.344v-11.399l.398-.516 20.791-5.535.754.575v22.717l-21.943-5.842zm0-29.67l21.307 5.673-20.552 5.472-.755-.575v-10.57zm0-2.343V408.77l.398-.516 20.791-5.535.754.575v22.952l-21.943-5.842zm-38.277-35.114l36.38 9.685-7.136 1.9-36.046-9.597.172-.223 6.63-1.765zM1193.363 534.026l-27.902-7.429 17.133-4.561.273-.036h.933l.273.036 35.385 9.42.578.384 2.354 3.049.224.653v30.231l-.163.564-2.04 3.25 1.9 1.978.303.749v32.248l-.224.653-1.895 2.454-.577.384-27.365 7.285v3.028l-.869 1.126-9.422 2.508h-.554l-34.839-9.275-.869-1.126v-82.523l2.104.56 33.674 8.965v81.254l.207.055 8.465-2.253v-3.923l28.588-7.61 1.472-1.907v-31.5l-2.748-2.86 2.748-4.377v-29.593l-1.931-2.501-.365-.097-24.151 6.43v-5.081l-.7-.612zm-1.587 60.735l21.614 5.755-.07.089-20.79 5.535-.754-.575V594.76zm0-2.344v-11.399l.398-.516 20.791-5.535.754.575v22.717l-21.943-5.842zm0-29.67l21.307 5.673-20.552 5.472-.755-.575v-10.57zm0-2.343V548.77l.398-.516 20.791-5.535.754.575v22.952l-21.943-5.842zm-38.277-35.114l36.38 9.685-7.136 1.9-36.046-9.597.172-.223 6.63-1.765zM785.363 114.026l-27.902-7.429 17.133-4.561.273-.036h.933l.273.036 35.385 9.42.578.384 2.354 3.049.224.653v30.231l-.163.564-2.04 3.25 1.9 1.978.303.749v32.248l-.224.653-1.895 2.454-.577.384-27.365 7.285v3.028l-.869 1.126-9.422 2.508h-.554l-34.839-9.275-.869-1.126v-82.523l2.104.56 33.674 8.965v81.254l.207.055 8.465-2.253v-3.923l28.588-7.61 1.472-1.907v-31.5l-2.748-2.86 2.748-4.377v-29.593l-1.931-2.501-.365-.097-24.151 6.43v-5.081l-.7-.612zm-1.587 60.735l21.614 5.755-.07.089-20.79 5.535-.754-.575V174.76zm0-2.344v-11.399l.398-.516 20.791-5.535.754.575v22.717l-21.943-5.842zm0-29.67l21.307 5.673-20.552 5.472-.755-.575v-10.57zm0-2.343V128.77l.398-.516 20.791-5.535.754.575v22.952l-21.943-5.842zm-38.277-35.114l36.38 9.685-7.136 1.9-36.046-9.597.172-.223 6.63-1.765zM785.363-25.974l-27.902-7.429 17.133-4.561.273-.036h.933l.273.036 35.385 9.42.578.384 2.354 3.049.224.653V5.773l-.163.564-2.04 3.25 1.9 1.978.303.749v32.248l-.224.653-1.895 2.454-.577.384-27.365 7.285v3.028l-.869 1.126L774.262 62h-.554l-34.839-9.275-.869-1.126v-82.523l2.104.56 33.674 8.965v81.254l.207.055 8.465-2.253v-3.923l28.588-7.61 1.472-1.907v-31.5l-2.748-2.86 2.748-4.377v-29.593l-1.931-2.501-.365-.097-24.151 6.43v-5.081l-.7-.612zm-1.587 60.735l21.614 5.755-.07.089-20.79 5.535-.754-.575V34.76zm0-2.344V21.018l.398-.516 20.791-5.535.754.575V38.26l-21.943-5.842zm0-29.67l21.307 5.673-20.552 5.472-.755-.575V2.747zm0-2.343V-11.23l.398-.516 20.791-5.535.754.575V6.246L783.776.404zM745.499-34.71l36.38 9.685-7.136 1.9-36.046-9.597.172-.223 6.63-1.765zM785.363 254.026l-27.902-7.429 17.133-4.561.273-.036h.933l.273.036 35.385 9.42.578.384 2.354 3.049.224.653v30.231l-.163.564-2.04 3.25 1.9 1.978.303.749v32.248l-.224.653-1.895 2.454-.577.384-27.365 7.285v3.028l-.869 1.126-9.422 2.508h-.554l-34.839-9.275-.869-1.126v-82.523l2.104.56 33.674 8.965v81.254l.207.055 8.465-2.253v-3.923l28.588-7.61 1.472-1.907v-31.5l-2.748-2.86 2.748-4.377v-29.593l-1.931-2.501-.365-.097-24.151 6.43v-5.081l-.7-.612zm-1.587 60.735l21.614 5.755-.07.089-20.79 5.535-.754-.575V314.76zm0-2.344v-11.399l.398-.516 20.791-5.535.754.575v22.717l-21.943-5.842zm0-29.67l21.307 5.673-20.552 5.472-.755-.575v-10.57zm0-2.343V268.77l.398-.516 20.791-5.535.754.575v22.952l-21.943-5.842zm-38.277-35.114l36.38 9.685-7.136 1.9-36.046-9.597.172-.223 6.63-1.765zM785.363 394.026l-27.902-7.429 17.133-4.561.273-.036h.933l.273.036 35.385 9.42.578.384 2.354 3.049.224.653v30.231l-.163.564-2.04 3.25 1.9 1.978.303.749v32.248l-.224.653-1.895 2.454-.577.384-27.365 7.285v3.028l-.869 1.126-9.422 2.508h-.554l-34.839-9.275-.869-1.126v-82.523l2.104.56 33.674 8.965v81.254l.207.055 8.465-2.253v-3.923l28.588-7.61 1.472-1.907v-31.5l-2.748-2.86 2.748-4.377v-29.593l-1.931-2.501-.365-.097-24.151 6.43v-5.081l-.7-.612zm-1.587 60.735l21.614 5.755-.07.089-20.79 5.535-.754-.575V454.76zm0-2.344v-11.399l.398-.516 20.791-5.535.754.575v22.717l-21.943-5.842zm0-29.67l21.307 5.673-20.552 5.472-.755-.575v-10.57zm0-2.343V408.77l.398-.516 20.791-5.535.754.575v22.952l-21.943-5.842zm-38.277-35.114l36.38 9.685-7.136 1.9-36.046-9.597.172-.223 6.63-1.765zM785.363 534.026l-27.902-7.429 17.133-4.561.273-.036h.933l.273.036 35.385 9.42.578.384 2.354 3.049.224.653v30.231l-.163.564-2.04 3.25 1.9 1.978.303.749v32.248l-.224.653-1.895 2.454-.577.384-27.365 7.285v3.028l-.869 1.126-9.422 2.508h-.554l-34.839-9.275-.869-1.126v-82.523l2.104.56 33.674 8.965v81.254l.207.055 8.465-2.253v-3.923l28.588-7.61 1.472-1.907v-31.5l-2.748-2.86 2.748-4.377v-29.593l-1.931-2.501-.365-.097-24.151 6.43v-5.081l-.7-.612zm-1.587 60.735l21.614 5.755-.07.089-20.79 5.535-.754-.575V594.76zm0-2.344v-11.399l.398-.516 20.791-5.535.754.575v22.717l-21.943-5.842zm0-29.67l21.307 5.673-20.552 5.472-.755-.575v-10.57zm0-2.343V548.77l.398-.516 20.791-5.535.754.575v22.952l-21.943-5.842zm-38.277-35.114l36.38 9.685-7.136 1.9-36.046-9.597.172-.223 6.63-1.765z"/>
        </g>
    </g>
</svg>
