<?xml version="1.0" encoding="UTF-8"?>
<svg width="31px" height="40px" viewBox="0 0 31 40" version="1.1" xmlns="http://www.w3.org/2000/svg" xmlns:xlink="http://www.w3.org/1999/xlink">
    <!-- Generator: Sketch 51.2 (57519) - http://www.bohemiancoding.com/sketch -->
    <title>Blocks Logomark</title>
    <desc>Created with Sketch.</desc>
    <defs></defs>
    <g id="Symbols" stroke="none" stroke-width="1" fill="none" fill-rule="evenodd">
        <g id="Blocks-Logomark" fill="#2B3836">
            <path d="M18.8237292,4.81022559 L7.73444014,1.83883652 L14.5437016,0.0143100119 L14.6523607,0 L15.0229657,0 C15.0592259,0.00472958019 15.0953647,0.00958043167 15.1316248,0.0143100119 L29.1949709,3.78257271 L29.4245374,3.93598089 L30.3602667,5.15548495 L30.4490373,5.41694584 L30.4490373,17.5092697 L30.3843997,17.7348343 L29.5734586,19.0347412 L30.3291,19.8261576 L30.4490373,20.1255764 L30.4490373,33.0248394 L30.3602667,33.286179 L29.6070507,34.2677488 L29.3776054,34.421157 L18.5019964,37.335306 L18.5019964,38.5464424 L18.1564945,38.9967226 L14.4118797,40 L14.1917723,40 L0.345501896,36.2899475 L0,35.8396672 L0,2.83047184 L0.836044252,3.05458117 C0.836044252,3.05458117 14.2195435,6.64057313 14.2195435,6.64057313 L14.2195435,39.1420056 L14.3017654,39.164077 L17.6659522,38.2626675 L17.6659522,36.6937809 L29.027859,33.6493865 L29.612993,32.8868327 L29.612993,20.2868672 L28.5208238,19.1427939 L29.612993,17.3918791 L29.612993,5.55495257 L28.8453458,4.55434318 L28.7005478,4.51553637 L19.1019255,7.08757909 L19.1019255,5.05507232 L18.8237292,4.81022559 Z M18.1929972,29.1045025 L26.7831275,31.4062315 L26.7557202,31.4418853 L18.4929011,33.6559352 L18.1929972,33.4258835 L18.1929972,29.1045025 Z M18.1929972,28.1669542 L18.1929972,23.6072751 L18.3513775,23.4008713 L26.6143179,21.1868214 C26.7142454,21.2635862 26.814173,21.3402296 26.9141005,21.4168731 L26.9141005,30.5037306 L18.1929972,28.1669542 Z M18.1929972,16.2991035 L26.6610073,18.5680893 L18.4929011,20.7566722 L18.1929972,20.5266206 L18.1929972,16.2991035 Z M18.1929972,15.3614339 L18.1929972,10.7080121 L18.3513775,10.5016084 L26.6143179,8.28755848 C26.7142454,8.3643232 26.814173,8.44096665 26.9141005,8.51761011 L26.9141005,17.6982103 L18.1929972,15.3614339 Z M2.98024188,1.31591473 L17.4390536,5.19016854 L14.6031246,5.95005442 L0.276862348,2.1113331 L0.345501896,2.02195617 L2.98024188,1.31591473 Z"></path>
        </g>
    </g>
</svg>